<svg width="55" height="55" viewBox="0 0 55 55" fill="none" xmlns="http://www.w3.org/2000/svg">
<rect width="55" height="55" rx="27.5" fill="#AD9056"/>
<path d="M28.3903 15.4194C31.8473 19.2417 35.7739 23.1944 40.1702 27.2776C35.6435 31.4912 31.7168 35.4504 28.3903 39.1553L26.14 36.8658L31.2277 31.8956C31.7756 31.3738 32.3495 30.852 32.9496 30.3302C33.5497 29.8084 34.0128 29.417 34.3389 29.1561L34.8477 28.7647C33.3475 28.843 31.7429 28.8821 30.034 28.8821H14.9276V25.6926H30.034C30.7906 25.6926 31.5668 25.7089 32.3626 25.7415C33.1583 25.7741 33.765 25.81 34.1824 25.8491L34.8086 25.8883C33.6475 24.949 32.467 23.8793 31.2668 22.6791L26.14 17.7089L28.3903 15.4194Z" fill="white"/>
</svg>
