<svg width="25" height="24" viewBox="0 0 25 24" fill="none" xmlns="http://www.w3.org/2000/svg">
<path d="M20.75 2.25H4.25C3.85218 2.25 3.47064 2.40804 3.18934 2.68934C2.90804 2.97064 2.75 3.35218 2.75 3.75V20.25C2.75 20.6478 2.90804 21.0294 3.18934 21.3107C3.47064 21.592 3.85218 21.75 4.25 21.75H20.75C21.1478 21.75 21.5294 21.592 21.8107 21.3107C22.092 21.0294 22.25 20.6478 22.25 20.25V3.75C22.25 3.35218 22.092 2.97064 21.8107 2.68934C21.5294 2.40804 21.1478 2.25 20.75 2.25ZM20.75 20.25H4.25V3.75H20.75V20.25Z" fill="#166636"/>
<path d="M15.5 7H14C13.337 7 12.7011 7.26339 12.2322 7.73223C11.7634 8.20107 11.5 8.83696 11.5 9.5V11H10V13H11.5V17H13.5V13H15L15.5 11H13.5V9.5C13.5 9.36739 13.5527 9.24021 13.6464 9.14645C13.7402 9.05268 13.8674 9 14 9H15.5V7Z" stroke="#166636" stroke-linecap="round" stroke-linejoin="round"/>
</svg>
