<svg width="25" height="24" viewBox="0 0 25 24" fill="none" xmlns="http://www.w3.org/2000/svg">
<path d="M20.75 2.25H4.25C3.85218 2.25 3.47064 2.40804 3.18934 2.68934C2.90804 2.97064 2.75 3.35218 2.75 3.75V20.25C2.75 20.6478 2.90804 21.0294 3.18934 21.3107C3.47064 21.592 3.85218 21.75 4.25 21.75H20.75C21.1478 21.75 21.5294 21.592 21.8107 21.3107C22.092 21.0294 22.25 20.6478 22.25 20.25V3.75C22.25 3.35218 22.092 2.97064 21.8107 2.68934C21.5294 2.40804 21.1478 2.25 20.75 2.25ZM20.75 20.25H4.25V3.75H20.75V20.25ZM9.5 10.5V16.5C9.5 16.6989 9.42098 16.8897 9.28033 17.0303C9.13968 17.171 8.94891 17.25 8.75 17.25C8.55109 17.25 8.36032 17.171 8.21967 17.0303C8.07902 16.8897 8 16.6989 8 16.5V10.5C8 10.3011 8.07902 10.1103 8.21967 9.96967C8.36032 9.82902 8.55109 9.75 8.75 9.75C8.94891 9.75 9.13968 9.82902 9.28033 9.96967C9.42098 10.1103 9.5 10.3011 9.5 10.5ZM17.75 13.125V16.5C17.75 16.6989 17.671 16.8897 17.5303 17.0303C17.3897 17.171 17.1989 17.25 17 17.25C16.8011 17.25 16.6103 17.171 16.4697 17.0303C16.329 16.8897 16.25 16.6989 16.25 16.5V13.125C16.25 12.6277 16.0525 12.1508 15.7008 11.7992C15.3492 11.4475 14.8723 11.25 14.375 11.25C13.8777 11.25 13.4008 11.4475 13.0492 11.7992C12.6975 12.1508 12.5 12.6277 12.5 13.125V16.5C12.5 16.6989 12.421 16.8897 12.2803 17.0303C12.1397 17.171 11.9489 17.25 11.75 17.25C11.5511 17.25 11.3603 17.171 11.2197 17.0303C11.079 16.8897 11 16.6989 11 16.5V10.5C11.0009 10.3163 11.0693 10.1393 11.192 10.0026C11.3148 9.86596 11.4834 9.7791 11.666 9.75852C11.8485 9.73794 12.0323 9.78508 12.1824 9.891C12.3325 9.99691 12.4385 10.1542 12.4803 10.3331C12.9877 9.98894 13.5792 9.78947 14.1914 9.75611C14.8036 9.72276 15.4133 9.85679 15.955 10.1438C16.4968 10.4308 16.9501 10.86 17.2664 11.3852C17.5826 11.9105 17.7498 12.5119 17.75 13.125ZM9.875 7.875C9.875 8.0975 9.80902 8.31501 9.6854 8.50002C9.56179 8.68502 9.38609 8.82922 9.18052 8.91436C8.97495 8.99951 8.74875 9.02179 8.53052 8.97838C8.31229 8.93498 8.11184 8.82783 7.9545 8.6705C7.79717 8.51316 7.69002 8.31271 7.64662 8.09448C7.60321 7.87625 7.62549 7.65005 7.71064 7.44448C7.79578 7.23891 7.93998 7.06321 8.12498 6.9396C8.30999 6.81598 8.5275 6.75 8.75 6.75C9.04837 6.75 9.33452 6.86853 9.5455 7.0795C9.75647 7.29048 9.875 7.57663 9.875 7.875Z" fill="white"/>
</svg>
