<svg width="40" height="41" viewBox="0 0 40 41" fill="none" xmlns="http://www.w3.org/2000/svg">
<rect x="0.5" y="0.699951" width="39" height="39" rx="19.5" fill="#F4F4F5"/>
<rect x="0.5" y="0.699951" width="39" height="39" rx="19.5" stroke="#E5E5E8"/>
<g clip-path="url(#clip0_335_858)">
<g clip-path="url(#clip1_335_858)">
<path fill-rule="evenodd" clip-rule="evenodd" d="M28.9999 15.86V16.2C29.0007 17.2661 28.576 18.2884 27.8199 19.0399L24.9999 21.8699C24.4738 22.391 23.6261 22.391 23.1 21.8699L23 21.7599C22.8094 21.5655 22.8094 21.2543 23 21.0599L26.4399 17.62C26.807 17.2393 27.0083 16.7288 26.9999 16.2V15.86C27.0003 15.327 26.788 14.8158 26.4099 14.44L25.7599 13.7901C25.3841 13.412 24.873 13.1996 24.3399 13.2001H23.9999C23.4669 13.1996 22.9558 13.412 22.58 13.7901L19.14 17.2C18.9456 17.3906 18.6344 17.3906 18.44 17.2L18.33 17.09C17.8089 16.5639 17.8089 15.7162 18.33 15.19L21.16 12.3501C21.9165 11.605 22.9382 11.1913 23.9999 11.2001H24.3399C25.4011 11.1992 26.4191 11.6201 27.1699 12.3701L27.8299 13.0301C28.5798 13.7808 29.0007 14.7989 28.9999 15.86ZM16.6499 22.1399L21.9399 16.85C22.0338 16.7554 22.1616 16.7021 22.2949 16.7021C22.4282 16.7021 22.556 16.7554 22.6499 16.85L23.3499 17.55C23.4445 17.6439 23.4978 17.7717 23.4978 17.905C23.4978 18.0383 23.4445 18.1661 23.3499 18.26L18.0599 23.5499C17.966 23.6446 17.8382 23.6978 17.7049 23.6978C17.5716 23.6978 17.4438 23.6446 17.3499 23.5499L16.6499 22.8499C16.5553 22.756 16.502 22.6282 16.502 22.4949C16.502 22.3616 16.5553 22.2338 16.6499 22.1399ZM21.5599 23.1999C21.3655 23.0093 21.0543 23.0093 20.8599 23.1999L17.4299 26.6099C17.0517 26.9904 16.5365 27.2029 16 27.1999H15.66C15.1269 27.2003 14.6158 26.9879 14.24 26.6099L13.59 25.9599C13.2119 25.5841 12.9996 25.0729 13 24.5399V24.1999C12.9996 23.6668 13.2119 23.1557 13.59 22.7799L17.0099 19.3399C17.2005 19.1455 17.2005 18.8344 17.0099 18.6399L16.8999 18.5299C16.3738 18.0089 15.5261 18.0089 15 18.5299L12.18 21.3599C11.4239 22.1115 10.9992 23.1338 11 24.1999V24.5499C11.0018 25.6076 11.4225 26.6216 12.17 27.3699L12.83 28.0299C13.5808 28.7799 14.5988 29.2008 15.66 29.1999H16C17.0534 29.2061 18.0667 28.7963 18.8199 28.0598L21.6699 25.2099C22.191 24.6837 22.191 23.836 21.6699 23.3099L21.5599 23.1999Z" fill="#17171A"/>
</g>
</g>
<defs>
<clipPath id="clip0_335_858">
<rect width="24" height="24" fill="white" transform="translate(8 8.19995)"/>
</clipPath>
<clipPath id="clip1_335_858">
<rect width="24" height="24" fill="white" transform="translate(8 8.19995)"/>
</clipPath>
</defs>
</svg>
