<svg width="40" height="41" viewBox="0 0 40 41" fill="none" xmlns="http://www.w3.org/2000/svg">
<rect x="0.5" y="0.699951" width="39" height="39" rx="19.5" fill="#F4F4F5"/>
<rect x="0.5" y="0.699951" width="39" height="39" rx="19.5" stroke="#E5E5E8"/>
<g clip-path="url(#clip0_335_861)">
<g clip-path="url(#clip1_335_861)">
<g clip-path="url(#clip2_335_861)">
<path fill-rule="evenodd" clip-rule="evenodd" d="M11.6667 10.2C10.7462 10.2 10 10.9461 10 11.8666V28.5333C10 29.4538 10.7462 30.2 11.6667 30.2H28.3333C29.2538 30.2 30 29.4538 30 28.5333V11.8666C30 10.9461 29.2538 10.2 28.3333 10.2H11.6667ZM16.1342 14.6474C16.1404 15.7099 15.3451 16.3646 14.4014 16.3599C13.5123 16.3552 12.7373 15.6474 12.742 14.649C12.7467 13.7099 13.4889 12.9552 14.4529 12.9771C15.4311 12.999 16.1404 13.7162 16.1342 14.6474ZM20.3108 17.713H17.5108H17.5092V27.224H20.4686V27.0021C20.4686 26.58 20.4682 26.1578 20.4679 25.7354C20.467 24.609 20.466 23.4813 20.4718 22.3552C20.4733 22.0818 20.4858 21.7974 20.5561 21.5364C20.8201 20.5614 21.6968 19.9317 22.6749 20.0865C23.303 20.1848 23.7186 20.549 23.8936 21.1412C24.0014 21.5114 24.0499 21.9099 24.0546 22.2959C24.0672 23.4599 24.0654 24.6239 24.0637 25.788C24.063 26.1989 24.0623 26.61 24.0623 27.0209V27.2224H27.0311V26.9943C27.0311 26.4921 27.0309 25.99 27.0306 25.4879C27.03 24.2329 27.0293 22.9779 27.0327 21.7224C27.0342 21.1552 26.9733 20.5959 26.8342 20.0474C26.6264 19.2317 26.1968 18.5567 25.4983 18.0693C25.003 17.7224 24.4592 17.499 23.8514 17.474C23.7822 17.4711 23.7124 17.4673 23.6423 17.4635C23.3316 17.4467 23.0157 17.4297 22.7186 17.4896C21.8686 17.6599 21.1218 18.049 20.5577 18.7348C20.4921 18.8135 20.428 18.8934 20.3323 19.0126L20.3108 19.0396V17.713ZM12.9796 27.2271H15.9249V17.7192H12.9796V27.2271Z" fill="#17171A"/>
</g>
</g>
</g>
<defs>
<clipPath id="clip0_335_861">
<rect width="20" height="20" fill="white" transform="translate(10 10.2)"/>
</clipPath>
<clipPath id="clip1_335_861">
<rect width="20" height="20" fill="white" transform="translate(10 10.2)"/>
</clipPath>
<clipPath id="clip2_335_861">
<rect width="20" height="20" fill="white" transform="translate(10 10.2)"/>
</clipPath>
</defs>
</svg>
