<svg width="17" height="15" viewBox="0 0 17 15" fill="none" xmlns="http://www.w3.org/2000/svg">
<path d="M1.13379 6.35522C0.581504 6.35522 0.133789 6.80294 0.133789 7.35522C0.133789 7.90751 0.581504 8.35522 1.13379 8.35522L1.13379 6.35522ZM16.7069 8.06233C17.0974 7.67181 17.0974 7.03864 16.7069 6.64812L10.3429 0.284157C9.95237 -0.106367 9.31921 -0.106367 8.92868 0.284157C8.53816 0.674682 8.53816 1.30785 8.92868 1.69837L14.5855 7.35523L8.92868 13.0121C8.53816 13.4026 8.53816 14.0358 8.92868 14.4263C9.3192 14.8168 9.95237 14.8168 10.3429 14.4263L16.7069 8.06233ZM1.13379 8.35522L15.9997 8.35523L15.9997 6.35523L1.13379 6.35522L1.13379 8.35522Z" fill="#166636"/>
</svg>
